<svg width="265" height="58" viewBox="0 0 265 58" fill="none" xmlns="http://www.w3.org/2000/svg">
<path d="M259.978 0.820312H212.918C210.164 0.820312 207.897 3.05448 207.897 5.83288V52.8078C207.897 55.5575 210.135 57.8203 212.918 57.8203H235.903V25.5967H224.712V19.1233C232.115 18.8369 236.276 15.9153 237.194 10.3299H245.774V57.8203H259.978C262.733 57.8203 265 55.5861 265 52.8078V5.83288C265 3.05448 262.762 0.820312 259.978 0.820312Z" fill="#101214"/>
<path d="M0 27.2004C0 16.316 8.55116 7.32202 19.5127 7.32202C25.0222 7.32202 29.9004 9.55619 33.2577 13.0507L28.3508 17.3185C26.0839 15.0557 22.9561 13.6235 19.5127 13.6235C12.3389 13.6235 6.82945 19.8391 6.82945 27.2291C6.82945 34.5044 12.2815 40.8346 19.6275 40.8346C25.3091 40.8346 30.5316 37.1683 30.5316 32.2416H19.5701V26.5416H37.935C37.935 40.4622 30.4169 46.9069 19.7423 46.9069C8.46507 46.9069 0 37.9703 0 27.2004Z" fill="#101214"/>
<path d="M41.866 46.2483V6.23375H48.3224V46.2483H41.866Z" fill="#101214"/>
<path d="M72.4556 20.3261H78.912V46.2482H72.4556V42.2095C71.1357 45.4748 67.0035 46.9357 64.3923 46.9357C57.7063 46.9357 54.0046 42.4387 54.0046 34.8769V20.3261H60.461V34.5904C60.461 38.7437 62.9575 40.9206 65.8557 40.9206C68.8113 40.9206 72.4843 39.2593 72.4843 34.2181V20.3261H72.4556Z" fill="#101214"/>
<path d="M83.2444 33.2729C83.2444 25.0523 89.873 19.6674 97.3624 19.6674C101.868 19.6674 105.541 21.6724 107.922 24.6513L103.36 28.2603C102.04 26.6563 99.8015 25.6538 97.4772 25.6538C92.9721 25.6538 89.7582 28.8618 89.7582 33.2442C89.7582 37.5694 92.9721 40.892 97.4772 40.892C99.8015 40.892 102.04 39.8895 103.36 38.2855L107.922 41.8945C105.541 44.902 101.868 46.8784 97.3624 46.8784C89.873 46.9071 83.2444 41.4649 83.2444 33.2729Z" fill="#101214"/>
<path d="M109.673 33.2729C109.673 25.0523 116.072 19.6674 123.475 19.6674C130.878 19.6674 137.335 25.0523 137.335 33.2729C137.335 41.4935 130.878 46.9357 123.475 46.9357C116.072 46.9357 109.673 41.4648 109.673 33.2729ZM130.792 33.2729C130.792 28.8332 127.464 25.6824 123.446 25.6824C119.429 25.6824 116.158 28.8332 116.158 33.2729C116.158 37.8272 119.429 40.9206 123.446 40.9206C127.464 40.9206 130.792 37.7985 130.792 33.2729Z" fill="#101214"/>
<path d="M139.917 38.2568H145.972C145.972 40.0327 147.521 41.694 150.248 41.694C152.801 41.694 154.466 40.405 154.466 38.7437C154.466 37.3116 153.347 36.6241 151.395 36.1945L147.952 35.3066C142.098 33.7598 140.606 30.6377 140.606 27.3724C140.606 23.3337 144.623 19.6674 150.276 19.6674C154.896 19.6674 160.119 21.9875 160.061 27.7734H153.892C153.892 25.9975 152.285 24.8804 150.448 24.8804C148.44 24.8804 147.062 26.0548 147.062 27.6588C147.062 28.9764 148.354 29.7784 149.846 30.0935L154.007 31.2106C159.832 32.7 160.893 36.3664 160.893 38.7724C160.893 44.0427 155.614 46.9357 150.334 46.9357C145.197 46.9071 140.032 43.8136 139.917 38.2568Z" fill="#101214"/>
<path d="M190.449 35.5357H170.334C171.052 39.1447 173.835 41.0925 177.738 41.0925C180.521 41.0925 183.247 39.8608 184.739 37.7698L189.072 41.0352C186.69 44.8161 182.07 46.907 177.336 46.907C169.617 46.907 163.706 41.3502 163.706 33.2442C163.706 24.9663 169.875 19.6387 177.336 19.6387C184.739 19.6387 190.564 24.909 190.564 33.0151C190.564 33.7598 190.507 34.5905 190.449 35.5357ZM184.165 31.0387C183.763 27.4869 181.009 25.3673 177.393 25.3673C173.95 25.3673 171.109 27.0859 170.334 31.0387H184.165Z" fill="#101214"/>
</svg>
