<svg width="233" height="72" viewBox="0 0 233 72" fill="none" xmlns="http://www.w3.org/2000/svg">
<g clip-path="url(#clip0_51316_8569)">
<path d="M140.157 0.819336L139.917 1.75418L130.487 39.7711C130.336 40.5002 129.934 41.1535 129.351 41.6177C128.768 42.0818 128.041 42.3274 127.295 42.3119H120.48L120.72 41.3771L130.511 1.41859V0.867277H140.109L140.157 0.819336Z" fill="#101214"/>
<path d="M44.7769 1.03613L44.9448 1.51554L55.3111 28.3143L60.7101 6.42945V6.18975L60.9021 6.04592L66.8771 1.39569C67.1273 1.16933 67.4514 1.04155 67.7889 1.03613H68.8447C69.0859 1.04142 69.3229 1.10006 69.5387 1.20782C69.7544 1.31559 69.9436 1.4698 70.0925 1.65936C70.2304 1.8326 70.3278 2.03441 70.3776 2.25006C70.4275 2.4657 70.4284 2.68974 70.3805 2.90582L60.8301 41.5699L60.6862 42.1452H54.0873L53.8953 41.6897L44.9448 20.1165L40.7936 36.7758V37.0155L40.6016 37.1594L35.0585 41.9534C34.862 42.0924 34.6275 42.1677 34.3867 42.1691H33.3308C33.1329 42.1634 32.9385 42.1155 32.7605 42.0287C32.5826 41.9419 32.4253 41.8182 32.299 41.6658C32.1805 41.5152 32.0957 41.341 32.0502 41.155C32.0046 40.9689 31.9995 40.7753 32.0351 40.5871L41.6334 1.65936L41.7774 1.08407H44.8489L44.7769 1.03613Z" fill="#101214"/>
<path d="M123.071 1.03507C123.487 1.04335 123.897 1.13947 124.273 1.31711C124.649 1.49475 124.984 1.74989 125.255 2.06579C125.523 2.35718 125.726 2.70253 125.85 3.07872C125.975 3.45492 126.017 3.85326 125.974 4.24709L125.59 6.85985C125.543 7.20497 125.37 7.52056 125.105 7.74614C124.839 7.97173 124.499 8.09144 124.151 8.08234L105.77 8.01043C105.73 8.01308 105.692 8.02541 105.659 8.04632C105.625 8.06723 105.598 8.09607 105.578 8.13028L103.178 17.8622C103.178 17.8622 103.178 18.006 103.346 18.006H116.928C117.559 18.0167 118.18 18.1687 118.745 18.4508C119.31 18.7329 119.804 19.1379 120.191 19.636C120.569 20.072 120.844 20.5865 120.998 21.1421C121.151 21.6976 121.179 22.2804 121.079 22.848L117.576 38.9081C117.383 39.8699 116.856 40.7323 116.087 41.3423C115.318 41.9523 114.358 42.2704 113.377 42.24H93.58C93.2337 42.2307 92.8935 42.1466 92.5829 41.9935C92.2722 41.8404 91.9984 41.6219 91.7803 41.3531C91.5706 41.1089 91.4204 40.8195 91.3413 40.5076C91.2622 40.1958 91.2564 39.8698 91.3244 39.5553C91.351 39.4185 91.4051 39.2884 91.4835 39.1731C91.5618 39.0577 91.6628 38.9594 91.7803 38.8842L98.1152 35.3366C98.3402 35.2042 98.598 35.1377 98.8591 35.1448H109.393C109.532 35.159 109.672 35.1198 109.783 35.0353C109.894 34.9507 109.97 34.8271 109.993 34.6894L112.777 24.5979C112.742 24.5385 112.692 24.4891 112.633 24.454H99.579C98.969 24.4336 98.3711 24.2791 97.8278 24.0015C97.2845 23.7239 96.8091 23.3301 96.4355 22.848C96.0768 22.4219 95.8193 21.9202 95.6821 21.3806C95.545 20.841 95.5318 20.2773 95.6436 19.7319L99.147 4.70253C99.4051 3.63439 100.023 2.68723 100.896 2.01961C101.77 1.35198 102.847 1.0044 103.946 1.03507H123.071Z" fill="#101214"/>
<path d="M233.003 1.03532L232.763 1.94619L231.468 7.77097L231.324 8.37023H218.846L212.799 35.1211V35.3368L212.655 35.4806L206.368 41.9766C206.141 42.1734 205.852 42.2838 205.552 42.2882H203.968C203.755 42.2821 203.546 42.2296 203.355 42.1344C203.165 42.0392 202.997 41.9035 202.864 41.7369C202.732 41.5845 202.637 41.4033 202.587 41.2077C202.537 41.0121 202.533 40.8075 202.577 40.6103L210.375 8.37023H196.77L197.009 7.43538L197.849 4.0316C197.99 3.16185 198.448 2.37478 199.134 1.82169C199.821 1.2686 200.688 0.988534 201.569 1.03532H233.003Z" fill="#101214"/>
<path d="M95.602 1.32129L95.3621 2.25613L93.9223 7.57753L93.7784 8.12885H81.1565L78.7569 18.1484H90.3709C90.5515 18.1475 90.7298 18.1881 90.8921 18.2671C91.0543 18.346 91.1962 18.4613 91.3068 18.6039C91.4187 18.734 91.4987 18.8885 91.5403 19.0549C91.582 19.2214 91.5842 19.3952 91.5467 19.5627L91.1868 20.5455C91.1174 20.796 90.9652 21.0156 90.7549 21.1687L85.2838 24.3088H85.1158H77.0532L74.2217 35.0235H87.1555L86.9155 35.9584L85.4518 41.6153L85.2838 42.1667H63.6875L63.9275 41.2318L72.8299 5.61197C73.0119 4.39492 73.6359 3.28733 74.583 2.50042C75.5301 1.71351 76.7339 1.30232 77.9651 1.34526H95.602V1.32129Z" fill="#101214"/>
<path d="M163.506 1.03613L163.29 1.947L153.571 41.7616L153.427 42.3369H143.973L144.213 41.4021L148.772 23.3045L135.431 23.5922C135.253 23.5922 135.077 23.5527 134.916 23.4765C134.755 23.4004 134.614 23.2894 134.501 23.1518C134.388 23.0141 134.308 22.8531 134.265 22.6806C134.223 22.508 134.219 22.3281 134.255 22.154L134.375 21.1951C134.4 21.064 134.451 20.9393 134.526 20.8282C134.6 20.7171 134.695 20.6218 134.807 20.5479L140.278 17.4797H140.446H140.614L150.092 17.1681L154.003 1.58745V1.03613H163.386H163.506Z" fill="#101214"/>
<path d="M30.4502 0.986139C31.3788 0.930381 32.3085 1.07733 33.1746 1.41677C34.0407 1.7562 34.8224 2.27999 35.4653 2.9517C35.9463 3.66496 36.2551 4.47993 36.3676 5.33257C36.48 6.18521 36.3929 7.05227 36.1132 7.86561C34.2655 15.3683 27.8346 41.424 27.7626 41.6158L27.6186 42.1671H27.0427H4.31865C3.65757 42.2213 2.9929 42.1218 2.37675 41.8764C1.7606 41.6311 1.20971 41.2465 0.76726 40.7528C0.388608 40.1708 0.141007 39.5135 0.0415733 38.8265C-0.0578601 38.1395 -0.0067538 37.4391 0.191359 36.7738L4.99054 16.5429L5.13451 15.9676H11.9973L11.7574 16.8784L7.19816 34.7603C7.15148 34.9167 7.15148 35.0833 7.19816 35.2397C7.3888 35.3443 7.60477 35.3941 7.82205 35.3835H20.4199L26.9708 8.94427C27.1323 8.29217 27.0288 7.6027 26.6828 7.02665C26.464 6.80279 26.1964 6.63229 25.901 6.52836C25.6055 6.42444 25.2901 6.38989 24.9791 6.42739H15.3808C13.869 7.84164 10.5816 10.5982 7.67807 10.5982H7.41412H6.57426L6.76623 9.75926L8.03801 4.4858C8.36185 3.43761 9.02588 2.52699 9.92531 1.89763C10.8247 1.26826 11.9084 0.956 13.0052 1.01011H30.4502" fill="#101214"/>
<path d="M188.392 0.986139C189.32 0.930381 190.25 1.07733 191.116 1.41677C191.982 1.7562 192.764 2.27999 193.407 2.9517C193.888 3.66496 194.197 4.47993 194.309 5.33257C194.421 6.18521 194.334 7.05227 194.055 7.86561C192.207 15.3683 185.776 41.424 185.704 41.6158L185.56 42.1671H184.984H162.26C161.599 42.2213 160.934 42.1218 160.318 41.8764C159.702 41.6311 159.151 41.2465 158.709 40.7528C158.33 40.1708 158.082 39.5135 157.983 38.8265C157.884 38.1395 157.935 37.4391 158.133 36.7738L162.932 16.5429L163.172 16.0155H169.819L169.579 16.9264L165.14 34.7603C165.093 34.9167 165.093 35.0833 165.14 35.2397C165.33 35.3443 165.546 35.3941 165.763 35.3835H178.337L184.912 8.94427C185.074 8.29217 184.97 7.6027 184.624 7.02665C184.405 6.80279 184.138 6.63229 183.842 6.52836C183.547 6.42444 183.231 6.38989 182.921 6.42739H173.322C171.81 7.84164 168.523 10.5982 165.619 10.5982H165.308H164.444L164.66 9.75926L165.931 4.4858C166.257 3.42927 166.929 2.51251 167.838 1.88233C168.747 1.25216 169.842 0.945021 170.947 1.01011H188.392" fill="#101214"/>
<path d="M103.711 51.6592C104.215 51.6592 104.407 51.9229 104.311 52.4023L102.679 59.5934H106.399C106.932 59.6752 107.478 59.6215 107.986 59.4372C108.493 59.2529 108.946 58.9438 109.302 58.5387L115.757 52.0427C115.895 51.891 116.067 51.7747 116.259 51.7038C116.451 51.6328 116.658 51.6093 116.861 51.6352H121.396C121.972 51.6352 121.948 52.1386 121.66 52.4262L114.221 59.6173C113.6 60.2474 112.935 60.8322 112.23 61.3672C112.913 61.9441 113.483 62.6432 113.909 63.4286L118.349 70.8114C118.387 70.9129 118.399 71.0226 118.382 71.1299C118.365 71.2371 118.321 71.3381 118.253 71.4229C118.185 71.5076 118.096 71.5732 117.995 71.6131C117.894 71.653 117.784 71.6659 117.677 71.6504H113.069C112.494 71.6504 112.35 71.6504 112.182 71.2669L108.39 64.5552C107.91 63.7162 107.382 63.5005 105.991 63.5005H101.815L100.16 70.9073C100.13 71.1278 100.016 71.3282 99.8413 71.4667C99.6669 71.6052 99.4457 71.671 99.2239 71.6504H95.2886C94.7846 71.6504 94.5687 71.4107 94.6887 70.9073L98.816 52.4023C98.8567 52.1823 98.977 51.985 99.154 51.8479C99.3311 51.7109 99.5524 51.6437 99.7758 51.6592H103.711Z" fill="#101214"/>
<path d="M146.999 51.6602C147.527 51.6602 147.743 51.9238 147.623 52.4032L146.903 55.6153C146.873 55.8377 146.76 56.0405 146.586 56.1828C146.413 56.3251 146.192 56.3964 145.967 56.3823H132.722C130.154 56.3823 129.314 57.0295 128.738 59.5224H145.056C145.607 59.5224 145.823 59.7621 145.703 60.2655L145.08 62.9022C145.068 63.0127 145.034 63.1197 144.98 63.217C144.927 63.3143 144.854 63.4 144.767 63.4692C144.68 63.5383 144.58 63.5895 144.473 63.6197C144.366 63.6499 144.254 63.6586 144.144 63.6453H127.803C127.666 64.1945 127.594 64.7575 127.587 65.3232C127.587 66.6416 128.33 66.9772 130.322 66.9772H143.592C144.096 66.9772 144.336 67.1929 144.216 67.7202L143.496 70.9083C143.46 71.1308 143.341 71.3314 143.163 71.4694C142.985 71.6074 142.761 71.6725 142.536 71.6514H129.218C124.203 71.6514 122.02 70.2851 122.02 66.8573C122.254 64.2684 122.736 61.7079 123.459 59.2108C124.659 53.7216 127.491 51.6602 133.682 51.6602H146.999Z" fill="#101214"/>
<path d="M175.481 51.6609C175.985 51.6609 176.201 51.9246 176.129 52.404L175.361 55.7598C175.325 55.9823 175.206 56.1829 175.028 56.3209C174.85 56.4589 174.626 56.524 174.401 56.5029H165.331L162.091 70.8851C162.061 71.1056 161.947 71.306 161.773 71.4445C161.598 71.5829 161.377 71.6487 161.155 71.6282H157.244C156.716 71.6282 156.5 71.3885 156.62 70.8851L159.86 56.5029H150.765C150.261 56.5029 150.045 56.2392 150.165 55.7598L150.909 52.404C150.939 52.1835 151.053 51.9831 151.228 51.8446C151.402 51.7062 151.623 51.6404 151.845 51.6609H175.481Z" fill="#101214"/>
<path d="M197.124 51.6602C202.139 51.6602 204.322 53.0504 204.322 56.4542C204.107 59.0438 203.633 61.6054 202.907 64.1007C201.707 69.5899 198.875 71.6274 192.684 71.6274H183.23C178.239 71.6274 176.031 70.2611 176.031 66.8334C176.303 64.2501 176.818 61.6981 177.567 59.2108C178.767 53.7216 181.622 51.6602 187.813 51.6602H197.124ZM181.742 65.2993C181.742 66.5937 182.486 66.9772 184.502 66.9772H193.5C196.092 66.9772 196.908 66.282 197.484 63.7172C198.014 61.8562 198.399 59.9568 198.635 58.0363C198.635 56.7179 197.867 56.3823 195.876 56.3823H186.853C184.262 56.3823 183.446 57.0295 182.87 59.6183C182.332 61.4762 181.955 63.3768 181.742 65.2993Z" fill="#101214"/>
<path d="M79.4943 71.6276H81.7019C81.9035 71.6269 82.0989 71.5577 82.2559 71.4314C82.4129 71.305 82.5222 71.1291 82.5657 70.9325L86.741 52.6192C86.7657 52.4915 86.7619 52.36 86.73 52.2339C86.6981 52.1078 86.6388 51.9903 86.5564 51.8897C86.4739 51.7891 86.3704 51.7078 86.253 51.6516C86.1356 51.5954 86.0073 51.5656 85.8772 51.5645H83.6935C83.4952 51.5639 83.3024 51.6296 83.1458 51.7513C82.9892 51.8729 82.8779 52.0434 82.8297 52.2356L78.6544 70.5729C78.6256 70.6991 78.6256 70.8301 78.6544 70.9563C78.6832 71.0825 78.74 71.2006 78.8206 71.3019C78.9013 71.4031 79.0037 71.485 79.1203 71.5414C79.2369 71.5978 79.3647 71.6272 79.4943 71.6276Z" fill="#101214"/>
<path opacity="0.8" d="M66.3231 71.6516H68.1468C68.3433 71.6556 68.5349 71.5906 68.6884 71.468C68.8418 71.3453 68.9474 71.1728 68.9866 70.9805L73.1379 52.6432C73.1631 52.5167 73.1595 52.3862 73.1275 52.2613C73.0955 52.1363 73.0358 52.0202 72.953 51.9213C72.8701 51.8224 72.7661 51.7434 72.6486 51.6899C72.5311 51.6365 72.4032 51.61 72.2741 51.6125H70.4504C70.2539 51.6085 70.0623 51.6735 69.9088 51.7961C69.7554 51.9188 69.6498 52.0913 69.6105 52.2836L65.4832 70.6209C65.4538 70.7459 65.4535 70.876 65.4823 71.0011C65.5111 71.1262 65.5683 71.243 65.6494 71.3426C65.7306 71.4422 65.8335 71.5218 65.9503 71.5754C66.0671 71.629 66.1946 71.6551 66.3231 71.6516Z" fill="#101214"/>
<path opacity="0.6" d="M53.1511 71.6989H54.5909C54.7908 71.7018 54.9852 71.6334 55.1391 71.506C55.2931 71.3786 55.3965 71.2005 55.4307 71.0037L59.534 52.6904C59.5628 52.5643 59.5628 52.4332 59.5341 52.307C59.5053 52.1809 59.4485 52.0628 59.3678 51.9615C59.2872 51.8602 59.1848 51.7783 59.0682 51.7219C58.9515 51.6656 58.8237 51.6361 58.6942 51.6357H57.2304C57.0318 51.6375 56.8398 51.7075 56.6868 51.8342C56.5338 51.9608 56.4292 52.1362 56.3906 52.3309L52.2873 70.6442C52.258 70.7723 52.2584 70.9055 52.2885 71.0335C52.3186 71.1615 52.3776 71.2809 52.4609 71.3826C52.5442 71.4844 52.6497 71.5658 52.7694 71.6206C52.889 71.6754 53.0196 71.7022 53.1511 71.6989Z" fill="#101214"/>
<path opacity="0.4" d="M39.9513 71.7477H41.0071C41.2087 71.747 41.4041 71.6778 41.5611 71.5515C41.7181 71.4251 41.8274 71.2492 41.871 71.0526L45.9263 52.7393C45.9551 52.6131 45.9551 52.4821 45.9263 52.3559C45.8975 52.2297 45.8407 52.1116 45.7601 52.0103C45.6794 51.909 45.577 51.8272 45.4604 51.7708C45.3438 51.7144 45.216 51.6849 45.0864 51.6846H44.0066C43.8113 51.6851 43.6219 51.7518 43.4694 51.8737C43.3168 51.9956 43.2102 52.1655 43.1667 52.3557L39.1114 70.693C39.0827 70.8192 39.0826 70.9502 39.1114 71.0764C39.1402 71.2026 39.197 71.3207 39.2776 71.422C39.3583 71.5232 39.4607 71.6051 39.5773 71.6615C39.6939 71.7179 39.8217 71.7473 39.9513 71.7477Z" fill="#101214"/>
<path opacity="0.2" d="M26.78 71.7722H27.4519C27.6492 71.7688 27.8401 71.7015 27.9959 71.5805C28.1516 71.4594 28.2639 71.2912 28.3158 71.101L32.3231 52.7638C32.3519 52.6376 32.3519 52.5066 32.3231 52.3804C32.2944 52.2542 32.2375 52.1361 32.1569 52.0348C32.0762 51.9335 31.9738 51.8517 31.8572 51.7953C31.7406 51.7389 31.6128 51.7094 31.4832 51.7091H30.7874C30.5875 51.7061 30.393 51.7745 30.2391 51.9019C30.0852 52.0293 29.9818 52.2075 29.9475 52.4042L25.9162 70.7175C25.8869 70.8457 25.8873 70.9788 25.9174 71.1068C25.9475 71.2348 26.0065 71.3542 26.0898 71.456C26.1731 71.5577 26.2786 71.6391 26.3983 71.6939C26.5179 71.7487 26.6485 71.7755 26.78 71.7722Z" fill="#101214"/>
<path opacity="0.1" d="M13.5802 71.819H13.8922C14.0921 71.8219 14.2865 71.7535 14.4404 71.6261C14.5944 71.4987 14.6978 71.3206 14.732 71.1238L18.7153 52.8106C18.7441 52.6844 18.7441 52.5533 18.7154 52.4272C18.6866 52.301 18.6298 52.1829 18.5491 52.0816C18.4685 51.9803 18.3661 51.8984 18.2494 51.8421C18.1328 51.7857 18.005 51.7562 17.8755 51.7559H17.5635C17.3682 51.7564 17.1788 51.8231 17.0263 51.945C16.8737 52.0668 16.7671 52.2368 16.7237 52.427L12.7404 70.7643C12.7116 70.8905 12.7115 71.0215 12.7403 71.1477C12.7691 71.2739 12.8259 71.392 12.9066 71.4932C12.9872 71.5945 13.0896 71.6764 13.2062 71.7328C13.3228 71.7892 13.4507 71.8186 13.5802 71.819Z" fill="#101214"/>
</g>
<defs>
<clipPath id="clip0_51316_8569">
<rect width="233" height="71" fill="white" transform="translate(0 0.820312)"/>
</clipPath>
</defs>
</svg>
