<svg width="152" height="79" viewBox="0 0 152 79" fill="none" xmlns="http://www.w3.org/2000/svg">
<path d="M1.71067 40.962C0.29146 39.8611 -0.236252 38.6458 0.0960939 37.3004C0.192654 36.8946 0.242054 36.6928 0.338614 36.2892C0.843869 34.1859 1.79375 33.6814 3.07822 34.0267C5.81334 34.7644 8.35534 36.4372 11.2589 37.0157C13.6908 37.5 15.5906 36.9148 15.8062 35.3452C16.1857 32.6006 11.7372 30.8943 9.79251 29.5153C6.24449 26.9883 3.93604 23.7258 5.0229 19.2637C6.66217 12.5369 14.0658 10.9315 20.1401 12.1266C22.7226 12.6356 25.4914 13.3979 27.6516 14.9047C29.1247 15.9317 29.7512 17.2255 29.4346 19.2502C29.4099 19.4072 29.3987 19.4745 29.374 19.6426C29.0775 21.5329 27.9772 22.0105 26.8454 21.775C24.8738 21.3624 22.8034 20.322 20.8228 19.8736C18.6064 19.3713 16.4978 20.0081 16.2755 21.5912C15.896 24.3289 20.4231 26.0757 22.361 27.3694C25.8529 29.7059 28.7385 33.0244 27.9907 37.5089C26.7466 44.9712 17.7441 46.0856 11.6788 44.7447C8.18018 43.9667 4.68831 43.0563 1.71067 40.962ZM82.5381 26.986C82.6758 33.3481 82.812 39.7086 82.9468 46.0677C83.0635 48.8884 80.5395 50.5185 77.9391 50.4311C76.9354 50.4311 76.4346 50.4311 75.4331 50.4311C72.8327 50.5275 70.3019 48.9108 70.4052 46.0901L70.7016 28.7417C70.7263 27.1968 69.7742 26.412 68.337 26.3761C67.057 26.3447 65.7569 26.8448 64.2343 28.0489L63.5472 45.8995C63.4933 48.7247 60.875 50.2001 58.2836 49.958C57.2843 49.9042 56.7835 49.875 55.782 49.8145C53.1816 49.7562 50.7474 47.9915 51.0191 45.182L52.353 27.8829C52.472 26.3403 51.567 25.5016 50.1321 25.3806C48.8544 25.2707 47.5272 25.6945 45.9284 26.8066C45.3445 32.7322 44.7614 38.6577 44.1791 44.5833C43.9545 47.3996 41.2598 48.7135 38.6796 48.3189C37.6849 48.2045 37.1886 48.1462 36.196 48.0251C33.6001 47.8144 31.2715 45.9085 31.7049 43.1168C32.7887 35.248 33.8749 27.3777 34.9632 19.5059C35.2551 16.9205 37.5816 15.4474 40.0764 15.8353L40.5098 15.8891C42.9799 16.0999 44.8999 18.0147 44.6147 20.5664C47.534 17.8981 51.219 16.36 55.2094 16.6784C58.3172 16.925 61.8046 18.2479 63.2171 21.266C65.8602 18.8556 69.2802 17.2726 72.8731 17.3869C78.3793 17.5685 82.6279 21.2324 82.5381 26.986ZM86.387 6.35724C86.2815 3.47818 88.792 0.37265 91.983 0.321078C94.9741 0.271748 97.9877 2.61267 98.2392 5.67559C98.5041 8.87306 95.6994 11.5436 92.6477 11.8373C89.4185 12.1423 86.4925 9.31254 86.387 6.35724ZM99.0206 21.4207L100.853 45.1887C101.127 48.0005 98.6928 49.7651 96.0901 49.8212C95.0931 49.884 94.5946 49.9109 93.5953 49.9647C91.0039 50.2069 88.3856 48.7315 88.3339 45.9085C88.0345 37.9664 87.7306 30.025 87.4222 22.0844C87.256 19.4655 89.3197 17.6246 91.8527 17.582C92.751 17.5327 93.2001 17.508 94.0983 17.4519C96.6223 17.2053 98.8859 18.7973 99.0206 21.4163V21.4207ZM114.335 6.76533C115.975 18.9273 117.614 31.0894 119.253 43.2514C119.687 46.0452 117.351 47.9444 114.762 48.1485C113.77 48.2673 113.271 48.3234 112.279 48.4332C109.703 48.8234 107.001 47.5027 106.788 44.6842L103.285 8.03445C102.973 5.51415 104.758 3.5006 107.257 3.30777C108.113 3.21359 108.542 3.16426 109.4 3.06336C111.87 2.67769 114.068 4.23382 114.335 6.76085V6.76533ZM151.733 37.0762L151.877 37.6771C152.508 40.092 150.615 41.9598 148.361 42.3859C142.1 43.7686 135.812 44.9936 129.498 46.0609C127.124 46.5811 124.173 45.738 123.78 43.0137C123.648 41.811 123.854 40.5953 124.373 39.5023C127.057 33.3959 129.587 27.2297 131.963 21.0037C129.679 21.4342 127.388 21.8348 125.092 22.2055C122.882 22.654 120.699 21.4544 120.414 19.1135C120.376 18.869 120.358 18.7457 120.322 18.5013C119.918 16.2232 121.555 14.4159 123.769 14.1379C129.331 13.2051 134.863 12.14 140.366 10.9427C142.486 10.3507 144.945 11.1131 145.477 13.4383C145.703 14.5758 145.626 15.7528 145.253 16.851C143.119 23.3446 140.825 29.7761 138.37 36.1457C141.107 35.603 143.838 35.0253 146.564 34.4124C148.753 33.8204 151.203 34.6882 151.733 37.0762ZM79.035 78.3203C93.7862 78.271 107.397 71.6787 116.374 60.241C116.738 59.7773 117.007 59.2467 117.165 58.6794C117.324 58.1121 117.369 57.5191 117.298 56.9345C117.226 56.3498 117.041 55.7849 116.751 55.2719C116.461 54.7589 116.073 54.3079 115.609 53.9447C115.144 53.5815 114.613 53.3132 114.045 53.155C113.477 52.9969 112.883 52.952 112.297 53.023C111.712 53.094 111.146 53.2795 110.632 53.5688C110.119 53.8582 109.667 54.2457 109.303 54.7093C102.032 63.9721 90.9882 69.3109 79.0035 69.3513C66.6012 69.4028 54.9152 63.6806 46.9479 53.6712C46.2067 52.7399 45.1254 52.1407 43.9418 52.0056C42.7582 51.8704 41.5693 52.2102 40.6367 52.9503C39.704 53.6904 39.104 54.7701 38.9686 55.9519C38.8332 57.1337 39.1735 58.3209 39.9147 59.2521C49.5707 71.3783 63.756 78.3113 78.8643 78.3113L79.035 78.3203Z" fill="#101214"/>
</svg>
